PathFileType	4	(X/Y/Z)	c:/Users/goper/Files/vsCode/490R/osim_files/C11/C11_RoM_01.trc
DataRate	CameraRate	NumFrames	NumMarkers	Units                	OrigDataRate	OrigDataStartFrame	OrigNumFrames
120.00	120.00	9	36	mm	120.0	275	2195
                Frame#	Time	LPSI			LASI			LTH1			LTH2			LTH3			LTH4			LLFE			LMFE			LSH1			LSH2			LSH3			LSH4			LLMA			LMMA			LCAL			LMTP			LTOE			LMTP			RPSI			RASI			RTH1			RTH2			RTH3			RTH4			RLFE			RMFE			RSH1			RSH2			RSH3			RSH4			RLMA			RMMA			RCAL			RMTP			RTOE			RMTP		
		X1	Y1	Z1	X2	Y2	Z2	X3	Y3	Z3	X4	Y4	Z4	X5	Y5	Z5	X6	Y6	Z6	X7	Y7	Z7	X8	Y8	Z8	X9	Y9	Z9	X10	Y10	Z10	X11	Y11	Z11	X12	Y12	Z12	X13	Y13	Z13	X14	Y14	Z14	X15	Y15	Z15	X16	Y16	Z16	X17	Y17	Z17	X18	Y18	Z18	X19	Y19	Z19	X20	Y20	Z20	X21	Y21	Z21	X22	Y22	Z22	X23	Y23	Z23	X24	Y24	Z24	X25	Y25	Z25	X26	Y26	Z26	X27	Y27	Z27	X28	Y28	Z28	X29	Y29	Z29	X30	Y30	Z30	X31	Y31	Z31	X32	Y32	Z32	X33	Y33	Z33	X34	Y34	Z34	X35	Y35	Z35	X36	Y36	Z36

275	2.28333	-351.42999	1020.27234	475.10266	-174.34741	1011.45667	406.02838	-263.30640	639.84088	314.83063	-254.63077	593.12158	312.67267	-203.05257	646.06256	308.95267	-203.45190	599.24518	310.95966	-242.90248	516.43378	306.63437	-220.83238	507.34598	413.92169	-300.80658	418.33038	287.73459	-303.52002	374.85178	281.85114	-239.60217	410.07867	279.68457	-251.26855	366.72089	275.76373	-306.64096	98.72335	300.15851	-271.92654	110.57132	392.50369	-361.96588	60.01881	355.77112	-198.26242	40.95640	258.98795	-123.03561	58.76748	323.06424	-159.91273	45.68181	370.96533	-348.24347	1029.80286	560.52484	-186.79071	996.76538	638.24231	-260.64709	619.80280	688.05981	-251.30092	576.98181	684.71466	-198.38538	626.09418	683.73828	-199.49818	583.02167	681.80945	-225.95804	513.68707	675.28864	-245.71855	488.42789	562.68317	-296.06372	409.89853	694.97266	-295.57468	363.64401	695.10577	-234.57236	402.75064	689.45001	-243.05724	356.15094	692.19946	-307.22238	97.33966	660.34912	-279.40427	105.16174	566.02838	-368.30200	58.08921	612.86786	-152.13437	49.87004	592.27759	-148.64445	62.20407	642.07068	-190.21092	38.37182	703.16174
276	2.29167	-351.58942	1020.63696	475.90268	-174.67651	1011.72241	406.85001	-263.90460	640.17322	315.16852	-255.40402	593.38110	313.02393	-203.65184	646.29565	309.44138	-204.08131	599.46692	311.37808	-243.72926	516.76117	307.10037	-221.42139	507.66156	414.43695	-301.88318	418.54889	288.47696	-304.19180	375.21704	282.30838	-240.32364	410.56552	280.11166	-251.76637	367.28165	276.17667	-306.93665	98.85810	300.30405	-272.18591	110.70358	392.59689	-363.14862	60.29508	355.68182	-198.44742	41.33678	259.10876	-123.53456	59.66107	323.08682	-160.00594	46.07627	370.90536	-348.24274	1029.98352	561.31995	-187.14159	996.70990	638.81476	-260.93967	619.97083	688.40979	-251.63501	577.17334	685.14008	-198.65852	626.23944	683.94781	-199.87981	583.16559	682.09094	-226.58360	513.67676	675.62927	-246.63049	488.42413	563.05927	-296.56741	409.66632	695.33069	-295.89746	363.38974	695.35150	-235.08798	402.68732	689.75708	-243.52246	356.04910	692.50421	-307.19250	97.23933	660.36438	-279.45956	105.13845	566.08905	-368.32932	58.01953	612.85919	-152.15134	49.90528	592.29407	-148.62065	62.25444	642.06677	-190.21025	38.38597	703.18011
277	2.30000	-351.80731	1021.00592	476.60809	-175.10004	1011.94049	407.62976	-264.43063	640.52313	315.52707	-255.96970	593.70569	313.30243	-204.14577	646.55579	309.93576	-204.62048	599.75275	311.81241	-244.34335	517.08649	307.54831	-222.03258	507.88174	414.91437	-301.98975	419.12482	288.74725	-304.74066	375.63565	282.74841	-240.91280	410.86874	280.41513	-252.45381	367.56335	276.42404	-307.29974	99.02586	300.47073	-272.55038	110.83531	392.72748	-363.34863	60.17558	355.80621	-198.71544	41.80989	259.29004	-124.02280	60.60783	323.19638	-160.19954	46.53061	370.98672	-348.39532	1030.26611	562.03046	-187.19241	996.40765	639.63623	-261.14825	620.10809	688.82098	-251.86572	577.28333	685.47729	-198.93294	626.32373	684.06805	-200.16745	583.26160	682.23853	-227.17863	513.70703	675.92688	-247.52528	488.38791	563.37848	-297.13531	409.43207	695.74493	-296.32510	363.20822	695.62085	-235.59169	402.56302	690.00220	-243.87608	355.95056	692.73944	-307.28305	97.14139	660.41931	-279.51767	105.12939	566.12128	-368.41492	57.98261	612.89331	-152.15022	49.93588	592.31116	-148.64748	62.28962	642.07739	-190.22118	38.40393	703.19641
278	2.30833	-352.04831	1021.39307	477.26797	-175.48958	1012.21655	408.30374	-264.76346	640.89069	315.80801	-256.33588	594.04669	313.52744	-204.46942	646.83154	310.32959	-204.95224	600.04608	312.18408	-244.68411	517.45374	307.89005	-222.50606	508.03354	415.44241	-302.38486	419.57761	289.09381	-305.06348	376.03543	283.13757	-241.20958	411.36554	280.84918	-252.72684	368.07053	276.81531	-307.71051	99.17918	300.63986	-273.00540	110.97903	392.91901	-363.58936	60.03818	355.93475	-198.96097	42.30804	259.51285	-124.50565	61.63411	323.30829	-160.67189	46.69630	370.89124	-348.55942	1030.46936	562.71265	-187.53297	996.14380	640.33563	-261.30826	620.21063	689.32654	-252.13539	577.36853	685.87921	-199.10646	626.36005	684.13177	-200.37445	583.32306	682.31403	-227.66394	513.69757	676.22516	-248.38744	488.36554	563.69104	-297.57742	409.21936	696.08557	-296.77457	363.04706	695.95758	-236.05098	402.42126	690.21930	-244.18719	355.83383	692.92224	-307.39145	97.08244	660.48102	-279.55533	105.13102	566.12793	-368.44849	57.90489	612.95935	-152.17911	49.95269	592.30304	-148.72816	62.26092	642.11005	-190.26376	38.39201	703.23468
279	2.31667	-352.52609	1021.83417	478.07382	-175.84741	1012.47327	408.95013	-265.01166	641.15393	316.04898	-256.43472	594.35791	313.70895	-204.46997	647.10931	310.71472	-205.11188	600.30182	312.55740	-244.75409	517.77631	308.13626	-222.71246	508.19052	415.94705	-302.83694	419.89136	289.52301	-305.27563	376.48093	283.48105	-241.39474	411.67767	281.10620	-253.03761	368.40057	277.11755	-308.12634	99.32690	300.80707	-273.41809	111.12590	393.09677	-363.82590	59.88175	356.04791	-199.26862	42.89841	259.63831	-125.01849	62.53782	323.42319	-160.91542	47.21199	370.95035	-348.84485	1030.71143	563.55646	-187.73438	995.90033	640.90387	-261.37292	620.29211	689.81189	-252.22459	577.42639	686.33380	-199.19443	626.38312	684.15344	-200.45667	583.35205	682.34106	-227.95709	513.69873	676.44476	-249.21690	488.36728	564.01080	-297.80725	409.03983	696.36249	-297.07690	362.86966	696.28796	-236.44637	402.24948	690.43475	-244.45035	355.70251	693.11047	-307.34579	97.01279	660.58405	-279.57755	105.07469	566.16351	-368.48148	57.85693	613.02478	-152.18388	49.92272	592.29688	-148.73170	62.22242	642.11560	-190.41956	38.24192	703.15320
280	2.32500	-352.82767	1022.17480	478.66663	-176.20361	1012.74347	409.51062	-264.66861	641.48090	316.07431	-256.26224	594.66693	313.85812	-204.24811	647.39911	311.09393	-205.05913	600.51892	312.92438	-244.52084	518.06879	308.33307	-222.89320	508.28021	416.35031	-302.29489	420.47092	289.53571	-305.17914	376.99301	283.64288	-241.31393	411.94211	281.27304	-252.96336	368.69186	277.32455	-308.53140	99.45613	300.95706	-273.82550	111.26039	393.21014	-363.11139	59.39068	356.43085	-199.64143	43.35820	259.71667	-125.62659	63.46147	323.46344	-161.22661	47.62919	370.97604	-349.02130	1030.88623	564.10431	-187.92276	995.62708	641.39014	-261.37668	620.30627	690.17834	-252.30846	577.42365	686.69232	-199.28839	626.38617	684.14484	-200.56407	583.33057	682.36774	-228.27939	513.65570	676.63898	-249.94838	488.37915	564.22968	-298.07605	408.86310	696.66083	-297.32455	362.67505	696.53717	-236.90376	401.97467	690.73608	-244.80278	355.51410	693.28400	-307.38974	96.89932	660.64069	-279.59946	105.02458	566.18396	-368.52930	57.80408	613.11957	-152.18855	49.87434	592.29858	-148.78818	62.14540	642.14307	-190.27087	38.31144	703.27405
281	2.33333	-353.11832	1022.48816	479.27542	-176.61913	1012.94250	409.91724	-264.24765	641.75781	316.15909	-255.88072	594.93481	313.97888	-203.85904	647.71008	311.49878	-204.60791	600.82025	313.29526	-244.03534	518.34369	308.57935	-222.92099	508.44943	416.79843	-301.79898	420.98883	289.66312	-304.80923	377.46533	283.69916	-241.01506	412.16803	281.30948	-252.79326	368.97565	277.39801	-308.94901	99.61629	301.04907	-274.25739	111.37989	393.29025	-363.39218	59.31623	356.56497	-200.13997	43.71082	259.81226	-126.18777	64.19309	323.43619	-161.54221	48.01351	370.89752	-349.24539	1031.10022	564.66998	-188.25955	995.47650	641.60571	-261.44443	620.36230	690.50348	-252.32591	577.41266	686.94482	-199.58755	626.30969	683.72821	-200.66565	583.34003	682.37531	-228.59720	513.65710	676.83899	-250.64218	488.37927	564.41376	-298.11285	408.45465	697.05713	-297.62665	362.48288	696.70728	-237.29599	401.95215	690.83435	-245.12180	355.39157	693.47705	-307.41220	96.80887	660.75378	-279.61621	104.98930	566.20874	-368.54077	57.72855	613.19995	-152.17809	49.85334	592.29120	-148.81990	62.08924	642.14905	-190.27252	38.25986	703.30969
282	2.34167	-353.33224	1022.81769	479.69925	-177.05159	1013.18469	410.18094	-263.64835	642.00140	316.23016	-255.26808	595.20422	314.12561	-203.28636	648.02197	311.88486	-203.84442	601.18164	313.60132	-243.33266	518.57666	308.77875	-222.59230	508.77930	417.22830	-300.97086	421.47006	289.64386	-304.24026	377.98193	283.66464	-240.24811	412.48566	281.42828	-252.23059	369.28915	277.49002	-309.43845	99.78812	301.06989	-274.59503	111.56777	393.24606	-364.84808	59.70941	356.43292	-200.63094	44.24072	259.69830	-126.65974	64.82323	323.19431	-161.79108	48.33905	370.64764	-349.48901	1031.32043	565.22217	-188.36241	995.39545	641.87836	-261.70682	620.87274	691.25079	-252.35336	577.51257	687.12115	-199.64397	626.38397	683.65350	-200.70364	583.41040	682.31866	-228.90404	513.70270	676.99640	-251.28581	488.39981	564.55237	-298.86005	408.60715	697.09784	-297.86566	362.42645	696.82697	-237.59735	401.94592	690.92700	-245.43143	355.37283	693.57806	-307.43396	96.80939	660.78619	-279.62643	105.02502	566.22540	-368.52432	57.70926	613.21478	-152.18457	49.87130	592.27917	-148.83304	62.09949	642.15082	-190.27815	38.28087	703.31738
283	2.35000	-353.71454	1023.14349	480.05130	-177.56021	1013.41394	410.42047	-262.98007	642.19440	316.38187	-254.41747	595.38361	314.28662	-202.55605	648.30444	312.19931	-203.27751	601.38763	314.01035	-242.44568	518.80743	308.90775	-222.10942	509.05948	417.57281	-300.08783	421.94727	289.43539	-303.44827	378.45227	283.53262	-239.21100	412.77521	281.47626	-251.44305	369.55161	277.52899	-309.93921	99.94714	301.00269	-274.75244	111.77746	393.10800	-365.10284	59.75169	356.54370	-201.03383	44.57291	259.52164	-127.19391	65.22107	322.77328	-161.93396	48.58348	370.28064	-349.60986	1031.48303	565.64117	-188.28706	995.33215	642.17395	-261.70285	620.91638	691.44434	-252.41383	577.62781	687.29388	-199.69914	626.48383	683.56561	-200.75542	583.50476	682.24939	-229.21347	513.75079	677.07642	-251.91238	488.42883	564.70044	-299.24976	408.55087	697.23346	-298.11990	362.36411	696.93420	-237.87769	401.97095	691.00848	-245.69093	355.39850	693.65027	-307.41797	96.79675	660.77423	-279.65054	105.03793	566.25299	-368.57870	57.75452	613.16516	-152.19080	49.90212	592.29126	-148.94060	61.92802	642.04663	-190.41226	38.19314	703.20374
